<svg width="512" height="512" viewBox="0 0 512 512" fill="none" xmlns="http://www.w3.org/2000/svg" xmlns:xlink="http://www.w3.org/1999/xlink" class=""><rect id="r9" width="512" height="512" x="0" y="0" rx="0" fill="url(#ra)" stroke="#FFFFFF" stroke-width="0" stroke-opacity="100%" paint-order="stroke"></rect><clipPath id="clip"><use xlink:href="#r9"></use></clipPath><defs><linearGradient id="ra" gradientUnits="userSpaceOnUse" gradientTransform="rotate(45)" style="transform-origin: center center;"><stop stop-color="#4FACFE"></stop><stop offset="1" stop-color="#00F2FE"></stop></linearGradient><radialGradient id="rb" cx="0" cy="0" r="1" gradientUnits="userSpaceOnUse" gradientTransform="translate(256) rotate(90) scale(512)"><stop stop-color="white"></stop><stop offset="1" stop-color="white" stop-opacity="0"></stop></radialGradient></defs><svg xmlns="http://www.w3.org/2000/svg" width="352" height="352" viewBox="0 0 24 24" x="80" y="80" alignment-baseline="middle" style="color: rgb(255, 255, 255);"><path fill="currentColor" d="m21.71 20.29l-1.42 1.42a1 1 0 0 1-1.41 0L7 9.85A3.8 3.8 0 0 1 6 10a4 4 0 0 1-3.78-5.3l2.54 2.54l.53-.53l1.42-1.42l.53-.53L4.7 2.22A4 4 0 0 1 10 6a3.8 3.8 0 0 1-.15 1l11.86 11.88a1 1 0 0 1 0 1.41M2.29 18.88a1 1 0 0 0 0 1.41l1.42 1.42a1 1 0 0 0 1.41 0l5.47-5.46l-2.83-2.83M20 2l-4 2v2l-2.17 2.17l2 2L18 8h2l2-4Z"></path></svg></svg>